<svg xmlns="http://www.w3.org/2000/svg" xmlns:xlink="http://www.w3.org/1999/xlink" width="559" zoomAndPan="magnify" viewBox="0 0 419.25 297.749993" height="397" preserveAspectRatio="xMidYMid meet" version="1.0"><defs><clipPath id="78cb54dd4d"><path d="M 58.050781 12 L 360.511719 12 L 360.511719 284 L 58.050781 284 Z M 58.050781 12 " clip-rule="nonzero"/></clipPath></defs><g clip-path="url(#78cb54dd4d)"><path fill="#5e17eb" d="M 94.339844 128.191406 C 94.339844 126.015625 96.101562 124.273438 98.273438 124.273438 C 100.449219 124.273438 102.191406 126.015625 102.191406 128.191406 C 102.191406 132.59375 111.25 135.285156 116.359375 131.441406 C 117.542969 130.53125 118.292969 129.375 118.292969 128.191406 C 118.292969 124.773438 114.300781 123.902344 110.144531 123.140625 C 109.71875 123.140625 109.324219 123.070312 108.957031 122.9375 C 101.570312 121.582031 94.34375 120.003906 94.34375 110.1875 C 94.34375 103.617188 100.011719 98.933594 106.316406 97.636719 L 106.316406 94.683594 C 106.316406 92.507812 108.082031 90.746094 110.253906 90.746094 C 112.410156 90.746094 114.171875 92.507812 114.171875 94.683594 L 114.171875 97.636719 C 120.484375 98.933594 126.144531 103.617188 126.144531 110.1875 C 126.144531 112.359375 124.382812 114.101562 122.207031 114.101562 C 120.054688 114.101562 118.292969 112.359375 118.292969 110.1875 C 118.292969 105.765625 109.234375 103.09375 104.125 106.9375 C 102.9375 107.828125 102.191406 108.980469 102.191406 110.1875 C 102.191406 114.195312 107.535156 114.546875 111.289062 115.40625 C 118.769531 116.761719 126.144531 118.269531 126.144531 128.199219 C 126.144531 134.765625 120.480469 139.449219 114.171875 140.746094 L 114.171875 143.703125 L 106.316406 143.703125 L 106.316406 140.746094 C 100.003906 139.445312 94.339844 134.761719 94.339844 128.191406 Z M 110.253906 67.035156 C 139.054688 67.035156 162.390625 90.390625 162.390625 119.191406 C 162.390625 147.992188 139.054688 171.328125 110.253906 171.328125 C 81.453125 171.328125 58.097656 147.992188 58.097656 119.191406 C 58.097656 90.390625 81.453125 67.035156 110.253906 67.035156 Z M 141.554688 87.863281 C 124.269531 70.578125 96.21875 70.578125 78.933594 87.863281 C 61.648438 105.167969 61.648438 133.203125 78.933594 150.488281 C 96.21875 167.792969 124.269531 167.792969 141.554688 150.488281 C 158.863281 133.203125 158.863281 105.167969 141.554688 87.863281 Z M 180.265625 110.664062 C 199.613281 79.617188 215.058594 72.542969 251.0625 69.539062 C 253.351562 69.355469 255.316406 71.167969 255.316406 73.453125 L 255.316406 86.875 L 302.453125 55.460938 L 255.316406 24.066406 L 255.316406 36.230469 C 255.316406 38.417969 253.644531 40.128906 251.304688 40.167969 C 240.296875 40.761719 228.800781 43.527344 218.253906 48.152344 C 192.875 59.273438 172.097656 81.699219 180.265625 110.664062 Z M 211.738281 87.328125 C 201.578125 93.53125 193.097656 103.871094 182.886719 121.523438 C 181.347656 124.367188 177.167969 124.457031 175.792969 121.320312 C 160.125 85.445312 182.085938 55.429688 215.117188 40.964844 C 225.421875 36.453125 236.582031 33.578125 247.460938 32.597656 L 247.460938 16.738281 C 247.460938 13.640625 250.933594 11.742188 253.554688 13.46875 L 311.632812 52.160156 C 314.0625 53.738281 314.027344 57.191406 311.691406 58.730469 L 253.78125 97.308594 C 250.90625 99.371094 247.46875 97.238281 247.46875 94.191406 L 247.46875 77.757812 C 232.082031 79.269531 221.039062 81.648438 211.738281 87.328125 Z M 107.433594 176.371094 L 132.074219 176.371094 C 139.125 176.371094 145.269531 180.957031 147.464844 187.453125 C 175.589844 186.765625 168.6875 166.476562 207.140625 165.953125 C 211.117188 126.960938 244.070312 96.863281 283.726562 96.863281 C 326.242188 96.863281 360.703125 131.34375 360.703125 173.855469 C 360.703125 223.375 314.695312 259.804688 266.699219 248.9375 C 265.957031 251.871094 264.453125 254.675781 262.246094 256.773438 C 270.65625 265.019531 267.496094 282.042969 247.113281 282.042969 C 224.820312 282.042969 183.488281 285.683594 168.796875 279.371094 C 161.78125 276.34375 154.578125 274.246094 147.070312 272.964844 C 144.601562 278.925781 138.734375 283.011719 132.074219 283.011719 L 107.433594 283.011719 C 98.503906 283.011719 91.207031 275.714844 91.207031 266.765625 L 91.207031 192.617188 C 91.199219 183.667969 98.496094 176.371094 107.433594 176.371094 Z M 148.316406 195.308594 L 148.316406 265.226562 C 156.390625 266.605469 164.394531 268.941406 171.894531 272.152344 C 184.757812 277.6875 226.59375 274.195312 247.109375 274.195312 C 263.816406 274.195312 259.472656 260.675781 252.917969 260.714844 C 251.226562 260.714844 252.289062 260.886719 250.46875 260.605469 L 230.785156 260.34375 C 228.609375 260.320312 226.886719 258.539062 226.90625 256.386719 C 226.949219 254.210938 228.710938 252.488281 230.882812 252.519531 L 251.730469 252.785156 C 251.972656 252.804688 252.195312 252.824219 252.417969 252.855469 C 255.78125 252.5625 257.863281 250.515625 258.765625 248.007812 C 260.363281 243.71875 259.007812 237.222656 254.445312 237.222656 L 254.445312 237.179688 L 233.222656 237.738281 C 231.046875 237.777344 229.265625 236.066406 229.214844 233.914062 C 229.15625 231.738281 230.863281 229.957031 233.039062 229.90625 L 254.445312 229.398438 L 254.445312 229.359375 C 261.667969 229.359375 262.277344 213.453125 255.539062 213.675781 L 234.933594 215.011719 C 232.757812 215.160156 230.902344 213.503906 230.773438 211.355469 C 230.621094 209.179688 232.277344 207.328125 234.425781 207.195312 L 255.296875 205.820312 C 255.367188 205.820312 255.464844 205.820312 255.539062 205.820312 L 255.539062 205.800781 C 262.613281 205.800781 263.503906 190.113281 256.613281 190.113281 C 240.125 190.113281 208.320312 196.277344 205 173.851562 C 172.355469 175.148438 178.707031 194.324219 148.316406 195.308594 Z M 132.066406 184.226562 L 107.433594 184.226562 C 102.828125 184.226562 99.0625 188.011719 99.0625 192.617188 L 99.0625 266.773438 C 99.0625 271.378906 102.828125 275.164062 107.433594 275.164062 L 132.074219 275.164062 C 136.675781 275.164062 140.441406 271.378906 140.441406 266.773438 L 140.441406 192.617188 C 140.441406 188.011719 136.671875 184.226562 132.066406 184.226562 Z M 214.652344 176.910156 C 221.578125 186.210938 244.800781 182.273438 256.613281 182.273438 C 259.304688 182.273438 261.550781 183.015625 263.351562 184.257812 C 265.933594 182.496094 269.515625 184.332031 269.515625 187.507812 C 269.515625 196.085938 285.242188 200.765625 294.1875 194.023438 C 296.507812 192.296875 297.921875 189.976562 297.921875 187.507812 C 297.921875 171.597656 261.640625 184.867188 261.640625 160.195312 C 261.640625 150.691406 270.515625 144.226562 279.777344 142.890625 L 279.777344 136.707031 C 279.777344 134.53125 281.539062 132.789062 283.714844 132.789062 C 285.890625 132.789062 287.652344 134.53125 287.652344 136.707031 L 287.652344 142.890625 C 296.914062 144.226562 305.789062 150.691406 305.789062 160.195312 C 305.789062 162.367188 304.027344 164.128906 301.851562 164.128906 C 299.675781 164.128906 297.914062 162.367188 297.914062 160.195312 C 297.914062 151.613281 282.1875 146.9375 273.242188 153.675781 C 270.921875 155.40625 269.507812 157.726562 269.507812 160.195312 C 269.507812 176.144531 305.789062 162.832031 305.789062 187.507812 C 305.789062 197.011719 296.914062 203.476562 287.652344 204.8125 L 287.652344 210.996094 L 279.777344 210.996094 L 279.777344 204.8125 C 275.640625 204.214844 271.867188 202.695312 268.878906 200.5625 C 268.324219 203.992188 266.875 207.394531 264.519531 209.863281 C 269.769531 216.117188 269.050781 227.5 263.457031 233.390625 C 265.277344 235.464844 266.441406 238.175781 266.949219 240.949219 C 310.300781 251.714844 352.835938 219.097656 352.835938 173.863281 C 352.835938 135.671875 321.886719 104.742188 283.714844 104.742188 C 244.246094 104.742188 212.8125 137.847656 214.652344 176.910156 Z M 214.652344 176.910156 " fill-opacity="1" fill-rule="nonzero"/></g></svg>