<svg xmlns="http://www.w3.org/2000/svg" xmlns:xlink="http://www.w3.org/1999/xlink" width="559" zoomAndPan="magnify" viewBox="0 0 419.25 297.749993" height="397" preserveAspectRatio="xMidYMid meet" version="1.0"><defs><clipPath id="e8c374020d"><path d="M 64.785156 184.757812 L 168.746094 184.757812 L 168.746094 288.628906 L 64.785156 288.628906 Z M 64.785156 184.757812 " clip-rule="nonzero"/></clipPath></defs><path fill="#5344c2" d="M 164.726562 257.429688 C 163.710938 257.429688 162.695312 257.042969 161.921875 256.269531 C 160.371094 254.71875 160.371094 252.203125 161.921875 250.65625 L 173.480469 239.089844 C 177.316406 235.257812 181.796875 232.261719 186.804688 230.1875 C 191.8125 228.113281 197.101562 227.0625 202.519531 227.0625 L 262.636719 227.0625 C 271.890625 227.0625 281.488281 222.671875 288.320312 215.3125 L 342.640625 152.714844 C 344.839844 150.183594 346.046875 146.949219 346.046875 143.601562 C 346.046875 139.5625 344.300781 135.726562 341.253906 133.082031 C 335.457031 128.054688 326.648438 128.679688 321.617188 134.476562 L 281.945312 180.1875 C 280.507812 181.84375 278.003906 182.023438 276.347656 180.585938 C 274.691406 179.148438 274.511719 176.640625 275.949219 174.988281 L 315.621094 129.269531 C 323.519531 120.167969 337.351562 119.1875 346.457031 127.085938 C 351.242188 131.242188 353.988281 137.261719 353.988281 143.601562 C 353.988281 148.859375 352.085938 153.945312 348.636719 157.917969 L 294.277344 220.566406 C 294.246094 220.597656 294.21875 220.628906 294.191406 220.660156 C 290.175781 224.996094 285.257812 228.59375 279.964844 231.058594 C 274.359375 233.675781 268.527344 235 262.636719 235 L 202.519531 235 C 193.671875 235 185.351562 238.449219 179.097656 244.707031 L 167.535156 256.269531 C 166.757812 257.042969 165.742188 257.429688 164.726562 257.429688 " fill-opacity="1" fill-rule="nonzero"/><g clip-path="url(#e8c374020d)"><path fill="#5344c2" d="M 133.394531 288.761719 C 132.34375 288.761719 131.332031 288.34375 130.585938 287.597656 L 65.949219 222.960938 C 65.203125 222.214844 64.785156 221.203125 64.785156 220.152344 C 64.785156 219.101562 65.203125 218.089844 65.949219 217.34375 L 97.28125 186.015625 C 98.832031 184.464844 101.34375 184.464844 102.894531 186.015625 L 167.53125 250.652344 C 169.082031 252.203125 169.082031 254.71875 167.53125 256.265625 L 136.203125 287.597656 C 135.457031 288.34375 134.449219 288.761719 133.394531 288.761719 Z M 74.367188 220.152344 L 133.394531 279.179688 L 159.113281 253.460938 L 100.085938 194.433594 L 74.367188 220.152344 " fill-opacity="1" fill-rule="nonzero"/></g><path fill="#5344c2" d="M 261.730469 200.421875 L 197.945312 200.421875 C 195.753906 200.421875 193.976562 198.644531 193.976562 196.453125 C 193.976562 194.261719 195.753906 192.484375 197.945312 192.484375 L 261.730469 192.484375 C 269.078125 192.484375 275.050781 186.511719 275.050781 179.167969 C 275.050781 178.753906 275.03125 178.351562 274.996094 177.972656 C 274.996094 177.960938 274.996094 177.953125 274.992188 177.941406 C 274.71875 174.859375 273.351562 171.949219 271.152344 169.746094 C 268.636719 167.230469 265.292969 165.847656 261.730469 165.847656 L 142.394531 165.847656 C 133.542969 165.847656 125.226562 169.292969 118.96875 175.550781 L 102.894531 191.628906 C 101.34375 193.175781 98.828125 193.175781 97.277344 191.628906 C 95.726562 190.078125 95.726562 187.5625 97.277344 186.011719 L 113.355469 169.9375 C 117.1875 166.101562 121.671875 163.109375 126.679688 161.035156 C 131.6875 158.960938 136.972656 157.910156 142.394531 157.910156 L 261.730469 157.910156 C 267.410156 157.910156 272.75 160.121094 276.765625 164.136719 C 280.277344 167.648438 282.457031 172.292969 282.898438 177.21875 C 282.960938 177.851562 282.992188 178.503906 282.992188 179.167969 C 282.992188 190.886719 273.453125 200.421875 261.730469 200.421875 " fill-opacity="1" fill-rule="nonzero"/><path fill="#5344c2" d="M 173.339844 165.847656 C 172.839844 165.847656 172.332031 165.753906 171.84375 165.550781 C 165.097656 162.800781 159.25 159.046875 154.46875 154.394531 C 146.3125 146.46875 141.601562 135.636719 141.195312 123.894531 C 140.722656 110.203125 144.402344 96.132812 151.835938 83.210938 C 158.945312 70.847656 168.96875 60.339844 180.816406 52.824219 C 182.667969 51.648438 185.121094 52.199219 186.296875 54.046875 C 187.46875 55.898438 186.921875 58.351562 185.070312 59.527344 C 162.738281 73.691406 148.296875 99.449219 149.128906 123.621094 C 149.460938 133.304688 153.324219 142.210938 160 148.699219 C 164.050781 152.640625 169.042969 155.835938 174.84375 158.203125 C 176.871094 159.03125 177.84375 161.347656 177.015625 163.378906 C 176.390625 164.917969 174.90625 165.847656 173.339844 165.847656 " fill-opacity="1" fill-rule="nonzero"/><path fill="#5344c2" d="M 241.753906 165.847656 C 240.117188 165.847656 238.582031 164.828125 238.007812 163.199219 C 237.277344 161.128906 238.363281 158.863281 240.429688 158.132812 C 256.632812 152.421875 266.230469 142.9375 268.96875 129.949219 C 271.742188 116.761719 265.882812 102.3125 260.480469 92.511719 C 254.242188 81.183594 245.085938 70.269531 232.5 59.148438 C 230.859375 57.695312 230.703125 55.1875 232.152344 53.542969 C 233.605469 51.902344 236.113281 51.746094 237.757812 53.199219 C 251.039062 64.9375 260.746094 76.542969 267.433594 88.679688 C 273.488281 99.65625 280.011719 116.015625 276.734375 131.585938 C 274.953125 140.0625 270.757812 147.402344 264.269531 153.402344 C 258.773438 158.488281 251.644531 162.597656 243.074219 165.621094 C 242.636719 165.773438 242.191406 165.847656 241.753906 165.847656 " fill-opacity="1" fill-rule="nonzero"/><path fill="#5344c2" d="M 238.652344 60.144531 L 180.117188 60.144531 C 175.023438 60.144531 170.878906 56 170.878906 50.90625 L 170.878906 49.800781 C 170.878906 44.707031 175.023438 40.5625 180.117188 40.5625 L 238.652344 40.5625 C 243.746094 40.5625 247.890625 44.707031 247.890625 49.800781 L 247.890625 50.90625 C 247.890625 56 243.746094 60.144531 238.652344 60.144531 Z M 180.117188 48.5 C 179.402344 48.5 178.820312 49.085938 178.820312 49.800781 L 178.820312 50.90625 C 178.820312 51.621094 179.402344 52.203125 180.117188 52.203125 L 238.652344 52.203125 C 239.371094 52.203125 239.953125 51.621094 239.953125 50.90625 L 239.953125 49.800781 C 239.953125 49.085938 239.371094 48.5 238.652344 48.5 L 180.117188 48.5 " fill-opacity="1" fill-rule="nonzero"/><path fill="#5344c2" d="M 190.578125 48.503906 C 189.386719 48.503906 188.210938 47.96875 187.429688 46.953125 C 184.539062 43.191406 181.691406 39.003906 178.726562 34.144531 C 178.425781 33.652344 178.113281 33.15625 177.800781 32.65625 C 175.25 28.578125 172.355469 23.957031 172.425781 18.359375 C 172.476562 14.292969 174.757812 11.121094 178.234375 10.277344 C 182.148438 9.328125 185.582031 10.882812 188.339844 12.132812 C 189.117188 12.484375 189.851562 12.820312 190.507812 13.054688 C 193.71875 14.214844 197.125 15.058594 200.628906 15.5625 C 207.496094 16.550781 214.757812 16.222656 221.628906 14.609375 C 224.367188 13.964844 227.058594 13.113281 229.617188 12.085938 C 229.988281 11.9375 230.386719 11.765625 230.808594 11.582031 C 233.519531 10.410156 237.621094 8.632812 241.804688 10.628906 C 245.238281 12.265625 246.878906 15.984375 246.195312 20.574219 C 245.597656 24.585938 243.867188 28.164062 242.144531 31.484375 C 239.777344 36.046875 236.5 41.941406 232.144531 47.09375 C 230.726562 48.769531 228.222656 48.980469 226.550781 47.5625 C 224.875 46.148438 224.664062 43.644531 226.082031 41.972656 C 229.929688 37.417969 232.921875 32.019531 235.097656 27.828125 C 236.570312 24.992188 237.925781 22.210938 238.339844 19.40625 C 238.46875 18.554688 238.386719 17.980469 238.304688 17.757812 C 237.359375 17.394531 235.632812 18.144531 233.964844 18.867188 C 233.511719 19.0625 233.046875 19.265625 232.578125 19.453125 C 229.648438 20.632812 226.574219 21.601562 223.441406 22.335938 C 215.617188 24.175781 207.335938 24.550781 199.5 23.421875 C 195.460938 22.839844 191.527344 21.863281 187.8125 20.519531 C 186.859375 20.179688 185.949219 19.765625 185.066406 19.367188 C 183.320312 18.574219 181.664062 17.824219 180.433594 17.9375 C 180.398438 18.066406 180.367188 18.246094 180.363281 18.460938 C 180.324219 21.722656 182.460938 25.136719 184.53125 28.441406 C 184.859375 28.96875 185.1875 29.492188 185.503906 30.007812 C 188.320312 34.621094 191.007812 38.582031 193.722656 42.113281 C 195.058594 43.855469 194.734375 46.34375 192.996094 47.679688 C 192.273438 48.234375 191.421875 48.503906 190.578125 48.503906 " fill-opacity="1" fill-rule="nonzero"/><path fill="#5344c2" d="M 219.445312 121.921875 C 220.371094 120.492188 220.839844 118.941406 220.839844 117.304688 C 220.839844 115.65625 220.402344 114.167969 219.539062 112.882812 L 219.53125 112.871094 C 218.679688 111.605469 217.371094 110.5625 215.652344 109.769531 C 214.539062 109.265625 212.613281 108.707031 209.773438 108.0625 L 209.632812 108.03125 C 206.257812 107.257812 205.539062 106.714844 205.429688 106.613281 C 205.105469 106.324219 204.957031 105.984375 204.957031 105.515625 C 204.957031 105.125 205.050781 104.605469 205.773438 104.027344 C 206.214844 103.671875 207.171875 103.25 209.234375 103.25 L 209.28125 103.25 C 210.824219 103.257812 211.960938 103.554688 212.660156 104.125 C 213.128906 104.511719 213.457031 105.03125 213.660156 105.714844 C 214.09375 107.15625 215.433594 108.082031 216.925781 107.96875 C 217.875 107.894531 218.734375 107.40625 219.277344 106.621094 C 219.820312 105.835938 219.980469 104.859375 219.714844 103.941406 C 219.464844 103.082031 219.089844 102.269531 218.597656 101.519531 C 217.667969 100.097656 216.328125 99.015625 214.625 98.296875 C 213.078125 97.644531 211.296875 97.300781 209.332031 97.277344 C 209.25 97.277344 209.171875 97.277344 209.09375 97.277344 C 207.207031 97.277344 205.453125 97.601562 203.890625 98.25 C 202.226562 98.9375 200.925781 99.980469 200.035156 101.34375 C 199.152344 102.695312 198.707031 104.171875 198.707031 105.738281 C 198.707031 107.179688 199.082031 108.507812 199.828125 109.683594 C 200.558594 110.84375 201.65625 111.8125 203.085938 112.558594 C 204.136719 113.121094 205.847656 113.679688 208.3125 114.269531 C 208.523438 114.320312 208.726562 114.371094 208.933594 114.421875 C 210.78125 114.871094 212.054688 115.226562 212.617188 115.445312 C 213.589844 115.8125 214.027344 116.191406 214.222656 116.441406 C 214.472656 116.765625 214.589844 117.128906 214.589844 117.582031 C 214.589844 118.039062 214.449219 118.453125 214.164062 118.851562 C 213.863281 119.265625 213.363281 119.609375 212.667969 119.878906 C 211.878906 120.1875 210.929688 120.34375 209.851562 120.34375 C 209.6875 120.34375 209.523438 120.339844 209.363281 120.332031 C 208.34375 120.285156 207.410156 120.078125 206.589844 119.722656 C 205.71875 119.34375 205.085938 118.867188 204.707031 118.308594 C 204.460938 117.941406 204.261719 117.488281 204.121094 116.96875 C 203.75 115.59375 202.5 114.65625 201.085938 114.65625 C 200.996094 114.65625 200.902344 114.660156 200.8125 114.667969 C 199.898438 114.746094 199.070312 115.21875 198.53125 115.960938 C 197.996094 116.695312 197.808594 117.621094 198.011719 118.503906 C 198.277344 119.636719 198.734375 120.710938 199.378906 121.691406 C 200.414062 123.273438 201.863281 124.46875 203.671875 125.25 C 205.222656 125.917969 207.097656 126.289062 209.242188 126.359375 C 209.492188 126.367188 209.746094 126.371094 210.003906 126.371094 C 212.015625 126.371094 213.863281 125.992188 215.492188 125.246094 C 217.191406 124.46875 218.519531 123.347656 219.445312 121.921875 " fill-opacity="1" fill-rule="nonzero"/><path fill="#5344c2" d="M 209.386719 102.746094 C 207.195312 102.746094 205.417969 100.96875 205.417969 98.777344 L 205.417969 96.179688 C 205.417969 93.984375 207.195312 92.210938 209.386719 92.210938 C 211.578125 92.210938 213.355469 93.984375 213.355469 96.179688 L 213.355469 98.777344 C 213.355469 100.96875 211.578125 102.746094 209.386719 102.746094 " fill-opacity="1" fill-rule="nonzero"/><path fill="#5344c2" d="M 209.386719 131.4375 C 207.195312 131.4375 205.417969 129.664062 205.417969 127.46875 L 205.417969 124.871094 C 205.417969 122.679688 207.195312 120.902344 209.386719 120.902344 C 211.578125 120.902344 213.355469 122.679688 213.355469 124.871094 L 213.355469 127.46875 C 213.355469 129.664062 211.578125 131.4375 209.386719 131.4375 " fill-opacity="1" fill-rule="nonzero"/><path fill="#5344c2" d="M 209.386719 147.570312 C 189.675781 147.570312 173.636719 131.535156 173.636719 111.824219 C 173.636719 92.113281 189.675781 76.074219 209.386719 76.074219 C 229.097656 76.074219 245.132812 92.113281 245.132812 111.824219 C 245.132812 131.535156 229.097656 147.570312 209.386719 147.570312 Z M 209.386719 84.015625 C 194.050781 84.015625 181.578125 96.488281 181.578125 111.824219 C 181.578125 127.15625 194.050781 139.632812 209.386719 139.632812 C 224.71875 139.632812 237.195312 127.15625 237.195312 111.824219 C 237.195312 96.488281 224.71875 84.015625 209.386719 84.015625 " fill-opacity="1" fill-rule="nonzero"/></svg>