<svg xmlns="http://www.w3.org/2000/svg" xmlns:xlink="http://www.w3.org/1999/xlink" width="559" zoomAndPan="magnify" viewBox="0 0 419.25 297.749991" height="397" preserveAspectRatio="xMidYMid meet" version="1.0"><defs><clipPath id="7e4f6ef6d7"><path d="M 2.246094 0.65625 L 188.539062 0.65625 L 188.539062 148.703125 L 2.246094 148.703125 Z M 2.246094 0.65625 " clip-rule="nonzero"/></clipPath><clipPath id="e33df3d6d5"><rect x="0" width="190" y="0" height="149"/></clipPath></defs><g transform="matrix(1, 0, 0, 1, 114, 74)"><g clip-path="url(#e33df3d6d5)"><g clip-path="url(#7e4f6ef6d7)"><path fill="#5344c2" d="M 42.355469 43.796875 C 42.085938 42.78125 42.6875 41.742188 43.703125 41.46875 C 44.71875 41.195312 45.761719 41.800781 46.03125 42.816406 L 48.890625 53.480469 C 49.363281 55.242188 50.367188 56.714844 51.699219 57.738281 C 53.039062 58.765625 54.71875 59.355469 56.550781 59.355469 L 76.144531 59.355469 C 77.859375 59.355469 79.46875 59.695312 80.949219 60.355469 C 82.425781 61.015625 83.746094 61.992188 84.894531 63.277344 L 88.121094 66.886719 C 88.152344 66.921875 88.1875 66.957031 88.21875 66.996094 L 94.28125 73.789062 L 94.375 73.890625 C 94.410156 73.925781 94.441406 73.960938 94.476562 74 C 96.148438 75.753906 98.375 76.714844 100.652344 76.84375 C 102.164062 76.929688 103.699219 76.648438 105.101562 75.996094 C 105.140625 75.976562 105.179688 75.957031 105.222656 75.9375 C 105.972656 75.578125 106.679688 75.109375 107.332031 74.527344 C 108.511719 73.472656 109.355469 72.175781 109.859375 70.773438 L 109.863281 70.769531 C 110.164062 69.925781 110.339844 69.046875 110.390625 68.15625 C 110.496094 66.277344 110.039062 64.367188 109 62.710938 C 108.976562 62.675781 108.953125 62.640625 108.933594 62.601562 C 108.679688 62.210938 108.394531 61.835938 108.074219 61.476562 L 103.039062 55.839844 C 103.003906 55.804688 102.96875 55.765625 102.933594 55.722656 L 81.96875 32.246094 L 81.945312 32.21875 L 81.890625 32.160156 L 81.890625 32.164062 L 81.785156 32.054688 C 81.074219 31.285156 81.113281 30.082031 81.882812 29.367188 C 82.652344 28.652344 83.855469 28.695312 84.570312 29.464844 L 84.671875 29.574219 L 84.671875 29.578125 L 84.6875 29.597656 L 84.761719 29.679688 L 84.796875 29.714844 L 104.632812 51.929688 L 119.808594 40.152344 L 99.1875 15.859375 C 98.6875 15.273438 98.117188 14.828125 97.480469 14.535156 C 96.851562 14.246094 96.140625 14.09375 95.363281 14.09375 L 32.015625 14.09375 L 32.015625 76.117188 L 40.941406 76.117188 C 42.074219 76.117188 43.136719 76.355469 44.109375 76.816406 C 45.078125 77.277344 45.933594 77.953125 46.652344 78.835938 L 50.578125 83.652344 C 50.933594 84.085938 51.34375 84.417969 51.800781 84.632812 C 52.253906 84.847656 52.773438 84.957031 53.34375 84.957031 L 62.078125 84.957031 L 83.984375 67.953125 L 82.066406 65.804688 C 81.285156 64.925781 80.386719 64.261719 79.402344 63.820312 C 78.429688 63.382812 77.335938 63.160156 76.144531 63.160156 L 56.550781 63.160156 C 53.867188 63.160156 51.382812 62.285156 49.394531 60.757812 C 47.402344 59.230469 45.910156 57.054688 45.214844 54.457031 Z M 119.863281 75.667969 C 120.90625 75.78125 121.664062 76.714844 121.550781 77.761719 C 121.441406 78.804688 120.503906 79.5625 119.460938 79.449219 C 119.023438 79.402344 118.519531 79.464844 118.011719 79.617188 C 117.507812 79.769531 117.019531 80.003906 116.605469 80.3125 L 116.597656 80.320312 C 116.46875 80.414062 116.347656 80.515625 116.238281 80.625 C 115.84375 81.003906 115.566406 81.449219 115.515625 81.921875 C 115.492188 82.148438 115.515625 82.398438 115.597656 82.667969 C 115.699219 83.003906 115.886719 83.253906 116.144531 83.382812 C 116.476562 83.550781 116.96875 83.589844 117.605469 83.46875 C 118.289062 83.335938 119.105469 82.984375 119.90625 82.644531 C 120.65625 82.320312 121.402344 82 122.171875 81.78125 C 124.488281 81.125 126.28125 81.808594 127.402344 83.15625 C 128.085938 83.980469 128.472656 85.035156 128.535156 86.167969 C 128.589844 87.199219 128.371094 88.320312 127.851562 89.378906 C 127.636719 89.816406 127.367188 90.246094 127.050781 90.65625 L 127.402344 91.109375 C 128.042969 91.9375 127.890625 93.132812 127.058594 93.773438 C 126.230469 94.414062 125.035156 94.261719 124.394531 93.429688 L 124.050781 92.984375 C 122.824219 93.550781 121.335938 93.898438 119.5625 93.929688 C 118.515625 93.945312 117.648438 93.109375 117.632812 92.0625 C 117.617188 91.011719 118.453125 90.148438 119.5 90.132812 C 121.226562 90.105469 122.484375 89.65625 123.339844 89.011719 L 123.363281 88.996094 L 123.398438 88.96875 L 123.402344 88.964844 C 123.878906 88.59375 124.222656 88.160156 124.441406 87.710938 C 124.664062 87.253906 124.761719 86.78125 124.738281 86.359375 C 124.71875 86.035156 124.632812 85.761719 124.484375 85.582031 C 124.285156 85.347656 123.859375 85.257812 123.195312 85.445312 C 122.660156 85.597656 122.027344 85.867188 121.390625 86.140625 C 120.398438 86.566406 119.390625 86.996094 118.332031 87.203125 C 116.832031 87.496094 115.503906 87.320312 114.425781 86.777344 C 113.207031 86.160156 112.351562 85.113281 111.945312 83.753906 C 111.714844 82.988281 111.652344 82.234375 111.730469 81.523438 C 111.847656 80.4375 112.277344 79.472656 112.914062 78.644531 L 112.589844 78.226562 C 111.949219 77.398438 112.101562 76.203125 112.933594 75.5625 C 113.761719 74.925781 114.953125 75.078125 115.597656 75.90625 L 115.929688 76.335938 C 116.253906 76.191406 116.585938 76.070312 116.921875 75.96875 C 117.898438 75.675781 118.914062 75.566406 119.863281 75.667969 Z M 107.417969 79.082031 C 108.277344 78.613281 109.097656 78.039062 109.859375 77.363281 C 111.34375 76.035156 112.453125 74.4375 113.179688 72.710938 C 116.027344 71.085938 119.289062 70.578125 122.375 71.125 C 125.621094 71.695312 128.667969 73.421875 130.84375 76.222656 C 133.171875 79.222656 134.066406 82.882812 133.625 86.371094 C 133.191406 89.820312 131.457031 93.105469 128.523438 95.425781 C 128.449219 95.476562 128.375 95.53125 128.308594 95.59375 C 125.328125 97.863281 121.714844 98.730469 118.269531 98.296875 C 114.820312 97.859375 111.539062 96.128906 109.21875 93.195312 C 109.164062 93.117188 109.109375 93.042969 109.046875 92.972656 C 107.457031 90.878906 106.554688 88.476562 106.3125 86.039062 C 106.074219 83.671875 106.453125 81.269531 107.417969 79.082031 Z M 114.195312 68.089844 C 114.265625 66.074219 113.871094 64.039062 113.007812 62.160156 L 137.222656 43.367188 C 138.996094 45.007812 141.207031 46 143.507812 46.304688 L 143.570312 46.3125 C 145.894531 46.609375 148.3125 46.195312 150.457031 45.035156 L 165.925781 64.96875 C 164.273438 66.761719 163.273438 68.996094 162.980469 71.320312 L 162.980469 71.324219 C 162.6875 73.648438 163.097656 76.058594 164.257812 78.203125 L 102.753906 125.941406 C 100.976562 124.300781 98.765625 123.308594 96.464844 123 L 96.402344 122.992188 C 94.078125 122.699219 91.660156 123.113281 89.515625 124.269531 L 74.046875 104.335938 C 75.703125 102.542969 76.699219 100.304688 76.992188 97.980469 C 77.285156 95.65625 76.875 93.246094 75.714844 91.101562 L 92.933594 77.738281 C 95.113281 79.511719 97.757812 80.488281 100.445312 80.640625 C 101.273438 80.6875 102.105469 80.65625 102.929688 80.542969 C 102.472656 82.457031 102.332031 84.441406 102.53125 86.40625 C 102.847656 89.582031 104.03125 92.703125 106.125 95.40625 L 106.128906 95.414062 C 109.101562 99.238281 113.339844 101.496094 117.792969 102.058594 C 122.25 102.621094 126.917969 101.484375 130.742188 98.515625 L 130.75 98.511719 C 134.574219 95.539062 136.835938 91.300781 137.394531 86.847656 C 137.957031 82.394531 136.820312 77.722656 133.851562 73.898438 C 131.066406 70.3125 127.171875 68.097656 123.035156 67.371094 C 120.109375 66.855469 117.0625 67.082031 114.195312 68.089844 Z M 110.917969 58.972656 L 110.898438 58.953125 L 107.167969 54.773438 L 145.203125 25.25 C 145.53125 25 145.933594 24.902344 146.3125 24.949219 C 146.6875 24.996094 147.046875 25.1875 147.296875 25.507812 L 184.054688 72.867188 C 184.308594 73.195312 184.40625 73.59375 184.359375 73.96875 L 184.359375 73.976562 C 184.3125 74.347656 184.117188 74.703125 183.789062 74.957031 L 183.792969 74.960938 L 94.769531 144.058594 C 94.441406 144.308594 94.042969 144.40625 93.664062 144.359375 L 93.660156 144.359375 C 93.285156 144.3125 92.925781 144.121094 92.675781 143.800781 L 55.917969 96.441406 C 55.664062 96.117188 55.566406 95.714844 55.613281 95.339844 L 55.613281 95.332031 C 55.660156 94.960938 55.855469 94.605469 56.183594 94.351562 L 56.179688 94.347656 L 86.523438 70.796875 L 90.269531 74.996094 L 72.957031 88.429688 L 72.953125 88.4375 L 72.953125 88.429688 C 72.316406 88.921875 71.917969 89.621094 71.777344 90.367188 C 71.640625 91.109375 71.769531 91.898438 72.179688 92.582031 C 73.101562 94.105469 73.4375 95.847656 73.226562 97.515625 C 73.019531 99.179688 72.257812 100.78125 70.996094 102.023438 C 70.421875 102.589844 70.097656 103.324219 70.050781 104.078125 C 70 104.828125 70.214844 105.597656 70.710938 106.230469 L 86.847656 127.023438 L 86.851562 127.027344 L 86.847656 127.03125 C 87.339844 127.664062 88.035156 128.066406 88.78125 128.203125 C 89.519531 128.339844 90.304688 128.210938 90.996094 127.796875 L 90.996094 127.800781 C 92.519531 126.882812 94.257812 126.546875 95.921875 126.753906 L 95.96875 126.757812 C 97.621094 126.976562 99.207031 127.730469 100.441406 128.988281 C 101.007812 129.566406 101.742188 129.882812 102.492188 129.933594 C 103.246094 129.984375 104.011719 129.765625 104.648438 129.273438 L 167.015625 80.871094 L 167.019531 80.867188 L 167.019531 80.871094 C 167.65625 80.378906 168.054688 79.683594 168.195312 78.9375 C 168.332031 78.191406 168.207031 77.40625 167.792969 76.71875 C 166.875 75.199219 166.535156 73.460938 166.746094 71.792969 C 166.957031 70.125 167.714844 68.519531 168.980469 67.273438 C 169.554688 66.710938 169.875 65.976562 169.925781 65.222656 C 169.976562 64.472656 169.757812 63.707031 169.265625 63.070312 L 153.128906 42.277344 C 152.632812 41.640625 151.9375 41.234375 151.191406 41.09375 C 150.453125 40.957031 149.664062 41.085938 148.976562 41.496094 C 147.457031 42.417969 145.714844 42.753906 144.050781 42.542969 L 144.007812 42.539062 C 142.355469 42.324219 140.769531 41.566406 139.53125 40.3125 C 138.96875 39.738281 138.234375 39.417969 137.480469 39.367188 C 136.730469 39.316406 135.960938 39.535156 135.328125 40.027344 Z M 122.8125 37.824219 L 142.882812 22.246094 C 144.03125 21.355469 145.4375 21.015625 146.777344 21.183594 C 148.125 21.355469 149.410156 22.035156 150.304688 23.1875 L 187.058594 70.546875 C 187.949219 71.695312 188.289062 73.101562 188.121094 74.449219 C 187.949219 75.796875 187.269531 77.078125 186.125 77.96875 L 186.121094 77.964844 L 186.117188 77.96875 L 97.089844 147.066406 C 95.941406 147.953125 94.53125 148.296875 93.1875 148.128906 L 93.1875 148.125 C 91.839844 147.953125 90.5625 147.273438 89.667969 146.125 L 52.910156 98.765625 C 52.019531 97.617188 51.679688 96.207031 51.847656 94.867188 C 52.019531 93.515625 52.699219 92.234375 53.84375 91.34375 L 53.847656 91.351562 L 53.851562 91.34375 L 57.164062 88.773438 L 53.339844 88.773438 C 52.210938 88.773438 51.144531 88.539062 50.175781 88.078125 C 49.207031 87.617188 48.347656 86.9375 47.628906 86.054688 L 43.703125 81.238281 C 43.347656 80.804688 42.9375 80.476562 42.480469 80.257812 C 42.027344 80.042969 41.507812 79.933594 40.941406 79.933594 L 32.011719 79.933594 L 32.011719 90.800781 C 32.011719 91.851562 31.160156 92.707031 30.109375 92.707031 L 4.234375 92.707031 C 3.183594 92.707031 2.328125 91.851562 2.328125 90.800781 L 2.328125 2.695312 C 2.328125 1.640625 3.183594 0.789062 4.234375 0.789062 L 30.109375 0.789062 C 31.160156 0.789062 32.011719 1.640625 32.011719 2.695312 L 32.011719 10.285156 L 95.355469 10.285156 C 96.683594 10.285156 97.929688 10.554688 99.070312 11.082031 C 100.210938 11.609375 101.222656 12.390625 102.085938 13.40625 Z M 6.140625 88.894531 L 28.207031 88.894531 L 28.207031 4.601562 L 6.140625 4.601562 Z M 6.140625 88.894531 " fill-opacity="1" fill-rule="evenodd"/></g></g></g></svg>