<svg xmlns="http://www.w3.org/2000/svg" xmlns:xlink="http://www.w3.org/1999/xlink" width="559" zoomAndPan="magnify" viewBox="0 0 419.25 297.749991" height="397" preserveAspectRatio="xMidYMid meet" version="1.0"><defs><clipPath id="9b628451e2"><path d="M 2.472656 1.363281 L 238 1.363281 L 238 188.402344 L 2.472656 188.402344 Z M 2.472656 1.363281 " clip-rule="nonzero"/></clipPath><clipPath id="136c055c59"><rect x="0" width="240" y="0" height="189"/></clipPath></defs><g transform="matrix(1, 0, 0, 1, 89, 48)"><g clip-path="url(#136c055c59)"><g clip-path="url(#9b628451e2)"><path fill="#5344c2" d="M 53.265625 55.996094 C 52.921875 54.710938 53.6875 53.390625 54.972656 53.046875 C 56.261719 52.703125 57.582031 53.46875 57.925781 54.753906 L 61.542969 68.257812 C 62.144531 70.492188 63.410156 72.355469 65.101562 73.652344 C 66.792969 74.953125 68.925781 75.699219 71.242188 75.699219 L 96.058594 75.699219 C 98.226562 75.699219 100.269531 76.128906 102.140625 76.964844 C 104.007812 77.800781 105.683594 79.039062 107.136719 80.667969 L 111.21875 85.234375 C 111.261719 85.28125 111.304688 85.328125 111.34375 85.375 L 119.023438 93.976562 L 119.140625 94.105469 C 119.183594 94.148438 119.226562 94.195312 119.269531 94.242188 C 121.386719 96.46875 124.210938 97.683594 127.089844 97.84375 C 129.007812 97.953125 130.949219 97.597656 132.726562 96.769531 C 132.777344 96.746094 132.824219 96.71875 132.878906 96.699219 C 133.828125 96.242188 134.726562 95.648438 135.546875 94.914062 C 137.042969 93.578125 138.113281 91.933594 138.75 90.15625 L 138.753906 90.152344 C 139.136719 89.085938 139.355469 87.96875 139.421875 86.847656 C 139.554688 84.464844 138.980469 82.042969 137.664062 79.949219 C 137.632812 79.90625 137.605469 79.859375 137.578125 79.8125 C 137.257812 79.316406 136.894531 78.839844 136.488281 78.386719 L 130.113281 71.25 C 130.070312 71.199219 130.023438 71.152344 129.980469 71.101562 L 103.429688 41.367188 L 103.402344 41.335938 L 103.335938 41.261719 L 103.332031 41.265625 L 103.199219 41.125 C 102.296875 40.152344 102.351562 38.628906 103.324219 37.722656 C 104.296875 36.820312 105.820312 36.871094 106.726562 37.84375 L 106.855469 37.984375 L 106.851562 37.988281 L 106.875 38.011719 L 106.96875 38.117188 L 107.011719 38.164062 L 132.132812 66.296875 L 151.347656 51.382812 L 125.234375 20.617188 C 124.605469 19.875 123.878906 19.3125 123.078125 18.941406 C 122.277344 18.574219 121.375 18.382812 120.390625 18.382812 L 40.171875 18.382812 L 40.171875 96.925781 L 51.476562 96.925781 C 52.910156 96.925781 54.257812 97.226562 55.484375 97.808594 C 56.710938 98.394531 57.800781 99.253906 58.710938 100.371094 L 63.679688 106.46875 C 64.128906 107.019531 64.648438 107.4375 65.226562 107.710938 C 65.800781 107.984375 66.457031 108.121094 67.179688 108.121094 L 78.242188 108.121094 L 105.984375 86.585938 L 103.554688 83.867188 C 102.5625 82.753906 101.429688 81.910156 100.183594 81.351562 C 98.949219 80.800781 97.566406 80.519531 96.058594 80.519531 L 71.242188 80.519531 C 67.847656 80.519531 64.699219 79.410156 62.179688 77.476562 C 59.65625 75.539062 57.765625 72.785156 56.886719 69.496094 Z M 151.417969 96.359375 C 152.742188 96.5 153.699219 97.683594 153.558594 99.007812 C 153.417969 100.332031 152.234375 101.289062 150.910156 101.148438 C 150.355469 101.085938 149.71875 101.164062 149.074219 101.355469 C 148.433594 101.550781 147.816406 101.847656 147.292969 102.238281 L 147.28125 102.246094 C 147.121094 102.367188 146.96875 102.496094 146.828125 102.632812 C 146.328125 103.113281 145.980469 103.679688 145.914062 104.277344 C 145.882812 104.5625 145.910156 104.882812 146.015625 105.222656 C 146.144531 105.648438 146.382812 105.960938 146.707031 106.125 C 147.132812 106.339844 147.753906 106.390625 148.558594 106.234375 C 149.425781 106.066406 150.457031 105.621094 151.472656 105.1875 C 152.425781 104.777344 153.371094 104.375 154.34375 104.097656 C 157.277344 103.269531 159.546875 104.128906 160.96875 105.839844 C 161.832031 106.882812 162.324219 108.21875 162.398438 109.652344 C 162.46875 110.960938 162.195312 112.378906 161.535156 113.71875 C 161.261719 114.273438 160.921875 114.816406 160.519531 115.335938 L 160.964844 115.910156 C 161.777344 116.960938 161.582031 118.472656 160.53125 119.285156 C 159.480469 120.09375 157.96875 119.902344 157.15625 118.847656 L 156.722656 118.285156 C 155.167969 119 153.28125 119.445312 151.039062 119.480469 C 149.710938 119.5 148.617188 118.441406 148.597656 117.117188 C 148.578125 115.789062 149.636719 114.695312 150.960938 114.675781 C 153.144531 114.640625 154.738281 114.070312 155.820312 113.257812 L 155.851562 113.234375 L 155.894531 113.199219 L 155.898438 113.195312 C 156.503906 112.722656 156.9375 112.175781 157.214844 111.605469 C 157.5 111.027344 157.625 110.433594 157.59375 109.898438 C 157.570312 109.488281 157.457031 109.136719 157.269531 108.914062 C 157.019531 108.613281 156.480469 108.5 155.640625 108.734375 C 154.960938 108.929688 154.160156 109.269531 153.351562 109.617188 C 152.097656 110.15625 150.820312 110.703125 149.480469 110.964844 C 147.578125 111.335938 145.898438 111.113281 144.535156 110.421875 C 142.988281 109.640625 141.910156 108.316406 141.390625 106.597656 C 141.097656 105.625 141.019531 104.675781 141.117188 103.769531 C 141.269531 102.398438 141.816406 101.171875 142.617188 100.128906 L 142.207031 99.597656 C 141.398438 98.546875 141.589844 97.035156 142.644531 96.226562 C 143.691406 95.414062 145.203125 95.609375 146.015625 96.660156 L 146.4375 97.203125 C 146.851562 97.023438 147.269531 96.863281 147.695312 96.738281 C 148.929688 96.367188 150.21875 96.226562 151.417969 96.359375 Z M 135.660156 100.679688 C 136.75 100.089844 137.785156 99.359375 138.75 98.5 C 140.632812 96.824219 142.035156 94.800781 142.957031 92.613281 C 146.558594 90.554688 150.691406 89.914062 154.601562 90.601562 C 158.710938 91.324219 162.570312 93.515625 165.324219 97.058594 C 168.273438 100.859375 169.40625 105.492188 168.847656 109.910156 C 168.300781 114.277344 166.101562 118.4375 162.386719 121.378906 C 162.292969 121.441406 162.199219 121.511719 162.113281 121.589844 C 158.339844 124.460938 153.761719 125.558594 149.402344 125.011719 C 145.035156 124.460938 140.875 122.265625 137.9375 118.550781 C 137.871094 118.453125 137.800781 118.359375 137.722656 118.273438 C 135.707031 115.621094 134.566406 112.578125 134.257812 109.488281 C 133.953125 106.492188 134.4375 103.449219 135.660156 100.679688 Z M 144.242188 86.757812 C 144.332031 84.207031 143.832031 81.628906 142.738281 79.25 L 173.398438 55.453125 C 175.648438 57.527344 178.445312 58.785156 181.363281 59.171875 L 181.441406 59.183594 C 184.386719 59.554688 187.445312 59.03125 190.160156 57.566406 L 209.753906 82.804688 C 207.65625 85.078125 206.390625 87.90625 206.019531 90.847656 L 206.019531 90.855469 C 205.652344 93.796875 206.171875 96.851562 207.636719 99.566406 L 129.75 160.019531 C 127.5 157.941406 124.703125 156.683594 121.789062 156.296875 L 121.707031 156.285156 C 118.765625 155.917969 115.707031 156.4375 112.988281 157.902344 L 93.398438 132.660156 C 95.496094 130.386719 96.761719 127.558594 97.128906 124.609375 C 97.5 121.667969 96.980469 118.617188 95.511719 115.898438 L 117.320312 98.976562 C 120.074219 101.222656 123.425781 102.460938 126.828125 102.652344 C 127.875 102.710938 128.929688 102.671875 129.976562 102.53125 C 129.394531 104.957031 129.21875 107.46875 129.46875 109.957031 C 129.871094 113.976562 131.371094 117.929688 134.023438 121.351562 L 134.027344 121.359375 C 137.789062 126.203125 143.160156 129.066406 148.800781 129.777344 C 154.441406 130.488281 160.355469 129.046875 165.195312 125.289062 L 165.203125 125.285156 C 170.046875 121.519531 172.910156 116.152344 173.621094 110.515625 C 174.332031 104.875 172.894531 98.957031 169.136719 94.117188 C 165.609375 89.574219 160.675781 86.773438 155.4375 85.851562 C 151.730469 85.199219 147.871094 85.484375 144.242188 86.757812 Z M 140.089844 75.214844 L 140.070312 75.1875 L 135.34375 69.898438 L 183.511719 32.511719 C 183.921875 32.191406 184.433594 32.066406 184.914062 32.128906 C 185.390625 32.1875 185.84375 32.429688 186.160156 32.835938 L 232.710938 92.808594 C 233.03125 93.222656 233.152344 93.726562 233.09375 94.207031 L 233.09375 94.214844 C 233.035156 94.683594 232.789062 95.136719 232.375 95.457031 L 232.378906 95.460938 L 119.640625 182.960938 C 119.226562 183.28125 118.722656 183.40625 118.242188 183.34375 L 118.234375 183.34375 C 117.761719 183.285156 117.308594 183.042969 116.992188 182.636719 L 70.441406 122.664062 C 70.121094 122.25 69.996094 121.746094 70.058594 121.265625 L 70.058594 121.257812 C 70.117188 120.789062 70.359375 120.335938 70.777344 120.015625 L 70.773438 120.011719 L 109.199219 90.1875 L 113.945312 95.503906 L 92.019531 112.519531 L 92.015625 112.527344 L 92.011719 112.519531 C 91.210938 113.144531 90.703125 114.023438 90.527344 114.96875 C 90.355469 115.910156 90.511719 116.910156 91.035156 117.777344 C 92.203125 119.707031 92.628906 121.910156 92.363281 124.023438 C 92.097656 126.132812 91.136719 128.15625 89.535156 129.734375 C 88.804688 130.449219 88.398438 131.378906 88.335938 132.332031 C 88.273438 133.285156 88.546875 134.257812 89.171875 135.0625 L 109.609375 161.390625 L 109.617188 161.398438 L 109.609375 161.402344 C 110.234375 162.203125 111.113281 162.710938 112.058594 162.886719 C 112.992188 163.058594 113.988281 162.898438 114.859375 162.367188 L 114.863281 162.375 C 116.792969 161.214844 118.996094 160.785156 121.101562 161.050781 L 121.160156 161.054688 C 123.25 161.328125 125.257812 162.285156 126.828125 163.878906 C 127.542969 164.609375 128.46875 165.011719 129.421875 165.074219 C 130.375 165.140625 131.347656 164.867188 132.152344 164.238281 L 211.128906 102.945312 L 211.136719 102.9375 L 211.136719 102.945312 C 211.941406 102.320312 212.445312 101.441406 212.625 100.496094 C 212.800781 99.554688 212.636719 98.558594 212.113281 97.6875 C 210.949219 95.761719 210.523438 93.558594 210.789062 91.449219 L 210.792969 91.449219 C 211.058594 89.335938 212.015625 87.304688 213.617188 85.726562 C 214.347656 85.015625 214.753906 84.082031 214.816406 83.128906 C 214.878906 82.179688 214.605469 81.210938 213.980469 80.402344 L 193.542969 54.070312 C 192.917969 53.265625 192.035156 52.753906 191.09375 52.574219 C 190.15625 52.402344 189.15625 52.5625 188.285156 53.085938 C 186.359375 54.25 184.15625 54.675781 182.046875 54.410156 L 181.992188 54.40625 C 179.902344 54.132812 177.890625 53.171875 176.328125 51.582031 C 175.613281 50.855469 174.683594 50.449219 173.730469 50.386719 C 172.78125 50.324219 171.808594 50.597656 171.003906 51.222656 Z M 155.152344 48.429688 L 180.570312 28.707031 C 182.023438 27.578125 183.804688 27.148438 185.5 27.359375 C 187.207031 27.574219 188.835938 28.4375 189.96875 29.898438 L 236.511719 89.871094 C 237.640625 91.324219 238.070312 93.105469 237.855469 94.8125 C 237.640625 96.519531 236.777344 98.140625 235.328125 99.269531 L 235.328125 99.261719 L 235.320312 99.269531 L 122.578125 186.769531 C 121.125 187.898438 119.339844 188.328125 117.636719 188.117188 L 117.636719 188.113281 C 115.933594 187.898438 114.3125 187.035156 113.179688 185.578125 L 66.632812 125.605469 C 65.503906 124.152344 65.074219 122.367188 65.289062 120.667969 C 65.503906 118.957031 66.367188 117.335938 67.816406 116.210938 L 67.820312 116.214844 L 67.828125 116.210938 L 72.019531 112.953125 L 67.179688 112.953125 C 65.746094 112.953125 64.398438 112.652344 63.167969 112.070312 C 61.945312 111.488281 60.855469 110.628906 59.945312 109.511719 L 54.972656 103.410156 C 54.523438 102.863281 54.003906 102.445312 53.425781 102.171875 C 52.851562 101.898438 52.195312 101.757812 51.476562 101.757812 L 40.171875 101.757812 L 40.171875 115.519531 C 40.171875 116.851562 39.089844 117.933594 37.757812 117.933594 L 4.992188 117.933594 C 3.660156 117.933594 2.578125 116.851562 2.578125 115.519531 L 2.578125 3.945312 C 2.578125 2.613281 3.660156 1.53125 4.992188 1.53125 L 37.757812 1.53125 C 39.089844 1.53125 40.171875 2.613281 40.171875 3.945312 L 40.171875 13.558594 L 120.386719 13.558594 C 122.0625 13.558594 123.644531 13.902344 125.089844 14.570312 C 126.53125 15.234375 127.8125 16.222656 128.90625 17.507812 Z M 7.40625 113.105469 L 35.347656 113.105469 L 35.347656 6.359375 L 7.40625 6.359375 Z M 7.40625 113.105469 " fill-opacity="1" fill-rule="evenodd"/></g></g></g></svg>