<svg xmlns="http://www.w3.org/2000/svg" xmlns:xlink="http://www.w3.org/1999/xlink" width="559" zoomAndPan="magnify" viewBox="0 0 419.25 297.749993" height="397" preserveAspectRatio="xMidYMid meet" version="1.0"><defs><clipPath id="92b1cda923"><path d="M 64.246094 8.628906 L 115 8.628906 L 115 76 L 64.246094 76 Z M 64.246094 8.628906 " clip-rule="nonzero"/></clipPath><clipPath id="626aa8fbc8"><path d="M 106 235 L 157 235 L 157 288.628906 L 106 288.628906 Z M 106 235 " clip-rule="nonzero"/></clipPath><clipPath id="21208c6f5b"><path d="M 286 246 L 316 246 L 316 288.628906 L 286 288.628906 Z M 286 246 " clip-rule="nonzero"/></clipPath><clipPath id="4f1b4ddcf3"><path d="M 85 8.628906 L 295 8.628906 L 295 124 L 85 124 Z M 85 8.628906 " clip-rule="nonzero"/></clipPath><clipPath id="42c23f75b5"><path d="M 128 281 L 295 281 L 295 288.628906 L 128 288.628906 Z M 128 281 " clip-rule="nonzero"/></clipPath></defs><path fill="#5344c2" d="M 301.300781 218.34375 C 283.917969 218.34375 266.917969 209.617188 257.128906 193.773438 C 249.851562 182 247.59375 168.09375 250.777344 154.621094 C 253.957031 141.148438 262.195312 129.722656 273.972656 122.445312 C 298.277344 107.421875 330.277344 114.976562 345.304688 139.289062 C 360.324219 163.601562 352.765625 195.597656 328.457031 210.621094 C 319.992188 215.851562 310.589844 218.34375 301.300781 218.34375 Z M 301.132812 122.339844 C 293.027344 122.339844 285.058594 124.585938 277.992188 128.953125 C 267.953125 135.152344 260.933594 144.894531 258.21875 156.378906 C 255.507812 167.863281 257.429688 179.71875 263.636719 189.757812 C 269.835938 199.792969 279.578125 206.816406 291.0625 209.527344 C 302.539062 212.234375 314.398438 210.320312 324.4375 204.113281 C 345.160156 191.308594 351.601562 164.03125 338.796875 143.308594 C 332.59375 133.269531 322.855469 126.25 311.367188 123.535156 C 307.972656 122.734375 304.539062 122.339844 301.132812 122.339844 Z M 301.132812 122.339844 " fill-opacity="1" fill-rule="nonzero"/><path fill="#5344c2" d="M 320.820312 170.289062 C 319.5625 168.523438 317.957031 167.132812 315.976562 166.222656 C 314.023438 165.289062 311.882812 164.511719 309.449219 164.003906 C 308.058594 163.710938 306.640625 163.496094 305.167969 163.253906 L 305.167969 148.109375 C 306.480469 148.21875 307.84375 148.40625 309.128906 148.671875 C 310.839844 149.074219 312.445312 149.609375 314.132812 150.4375 C 315.550781 151.132812 317.207031 150.574219 317.902344 149.179688 L 319.164062 146.800781 C 319.910156 145.328125 319.347656 143.507812 317.851562 142.785156 C 316.085938 142.089844 314.050781 141.394531 311.777344 140.886719 C 309.558594 140.433594 307.335938 140.109375 305.167969 140.003906 L 305.167969 131.898438 L 297.195312 131.898438 L 297.195312 140.191406 C 294.46875 140.511719 292.003906 141.074219 289.785156 141.957031 C 286.601562 143.375 284.140625 145.222656 282.402344 147.601562 C 280.660156 150.011719 279.859375 152.792969 279.886719 155.921875 C 279.914062 158.917969 280.554688 161.355469 281.757812 163.148438 C 282.988281 164.9375 284.59375 166.277344 286.601562 167.320312 C 288.554688 168.285156 290.773438 169.03125 293.128906 169.542969 C 294.46875 169.863281 295.886719 170.078125 297.195312 170.316406 L 297.195312 184.84375 C 295.109375 184.605469 292.996094 184.203125 290.910156 183.613281 C 288.769531 183 286.816406 182.25 285.101562 181.367188 C 283.632812 180.644531 281.917969 181.179688 281.199219 182.652344 L 279.964844 185.140625 C 279.269531 186.53125 279.78125 188.214844 281.144531 188.992188 C 283.042969 190.007812 285.34375 190.890625 288.074219 191.667969 C 290.988281 192.496094 294.039062 193.003906 297.195312 193.140625 L 297.195312 201.164062 L 305.167969 201.164062 L 305.167969 192.84375 C 307.871094 192.496094 310.304688 191.960938 312.445312 191.105469 C 315.765625 189.714844 318.304688 187.894531 320.125 185.539062 C 321.917969 183.210938 322.800781 180.511719 322.773438 177.328125 C 322.667969 174.355469 322.027344 172.03125 320.820312 170.289062 Z M 297.195312 161.808594 C 296.769531 161.757812 296.285156 161.675781 295.910156 161.542969 C 293.960938 161.085938 292.351562 160.390625 291.121094 159.402344 C 289.890625 158.519531 289.277344 157.152344 289.195312 155.386719 C 289.195312 153.246094 290.1875 151.535156 292.191406 150.117188 C 293.421875 149.261719 295.136719 148.726562 297.195312 148.324219 Z M 310.492188 182.972656 C 309.234375 183.800781 307.46875 184.335938 305.167969 184.65625 L 305.167969 171.601562 C 305.730469 171.683594 306.238281 171.789062 306.695312 171.921875 C 308.699219 172.296875 310.253906 172.992188 311.457031 173.875 C 312.632812 174.757812 313.25 176.042969 313.277344 177.675781 C 313.355469 179.894531 312.394531 181.6875 310.492188 182.972656 Z M 310.492188 182.972656 " fill-opacity="1" fill-rule="nonzero"/><g clip-path="url(#92b1cda923)"><path fill="#5344c2" d="M 110.730469 75.558594 L 68.527344 75.558594 C 66.417969 75.558594 64.703125 73.847656 64.703125 71.734375 L 64.703125 33.652344 C 64.703125 19.910156 75.886719 8.726562 89.628906 8.726562 C 103.371094 8.726562 114.554688 19.910156 114.554688 33.652344 L 114.554688 71.734375 C 114.554688 73.847656 112.84375 75.558594 110.730469 75.558594 Z M 72.351562 67.914062 L 106.910156 67.914062 L 106.910156 33.652344 C 106.910156 24.125 99.15625 16.375 89.628906 16.375 C 80.101562 16.375 72.351562 24.125 72.351562 33.652344 Z M 72.351562 67.914062 " fill-opacity="1" fill-rule="nonzero"/></g><g clip-path="url(#626aa8fbc8)"><path fill="#5344c2" d="M 131.832031 288.929688 C 118.082031 288.929688 106.894531 277.742188 106.894531 263.992188 L 106.894531 238.949219 C 106.894531 236.839844 108.609375 235.125 110.71875 235.125 C 112.832031 235.125 114.542969 236.839844 114.542969 238.949219 L 114.542969 263.992188 C 114.542969 273.527344 122.300781 281.285156 131.832031 281.285156 C 141.367188 281.285156 149.121094 273.527344 149.121094 263.992188 L 149.121094 250.667969 C 149.121094 248.554688 150.835938 246.84375 152.945312 246.84375 C 155.058594 246.84375 156.769531 248.554688 156.769531 250.667969 L 156.769531 263.992188 C 156.769531 277.742188 145.582031 288.929688 131.832031 288.929688 Z M 131.832031 288.929688 " fill-opacity="1" fill-rule="nonzero"/></g><g clip-path="url(#21208c6f5b)"><path fill="#5344c2" d="M 290.675781 288.929688 C 288.566406 288.929688 286.851562 287.21875 286.851562 285.109375 C 286.851562 282.996094 288.566406 281.285156 290.675781 281.285156 C 300.191406 281.285156 307.933594 273.527344 307.933594 263.992188 L 307.933594 250.667969 C 307.933594 248.554688 309.644531 246.84375 311.757812 246.84375 C 313.867188 246.84375 315.578125 248.554688 315.578125 250.667969 L 315.578125 263.992188 C 315.578125 277.742188 304.410156 288.929688 290.675781 288.929688 Z M 290.675781 288.929688 " fill-opacity="1" fill-rule="nonzero"/></g><path fill="#5344c2" d="M 110.71875 254.488281 C 108.609375 254.488281 106.894531 252.777344 106.894531 250.667969 L 106.894531 71.75 C 106.894531 69.640625 108.609375 67.925781 110.71875 67.925781 C 112.832031 67.925781 114.542969 69.640625 114.542969 71.75 L 114.542969 250.667969 C 114.542969 252.777344 112.832031 254.488281 110.71875 254.488281 Z M 110.71875 254.488281 " fill-opacity="1" fill-rule="nonzero"/><path fill="#5344c2" d="M 311.757812 254.488281 L 152.945312 254.488281 C 150.835938 254.488281 149.121094 252.777344 149.121094 250.667969 C 149.121094 248.554688 150.835938 246.84375 152.945312 246.84375 L 311.757812 246.84375 C 313.867188 246.84375 315.578125 248.554688 315.578125 250.667969 C 315.578125 252.777344 313.867188 254.488281 311.757812 254.488281 Z M 311.757812 254.488281 " fill-opacity="1" fill-rule="nonzero"/><path fill="#5344c2" d="M 290.675781 242.773438 C 288.566406 242.773438 286.851562 241.0625 286.851562 238.949219 L 286.851562 213.339844 C 286.851562 211.226562 288.566406 209.515625 290.675781 209.515625 C 292.785156 209.515625 294.5 211.226562 294.5 213.339844 L 294.5 238.949219 C 294.5 241.0625 292.785156 242.773438 290.675781 242.773438 Z M 290.675781 242.773438 " fill-opacity="1" fill-rule="nonzero"/><g clip-path="url(#4f1b4ddcf3)"><path fill="#5344c2" d="M 290.675781 123.507812 C 288.566406 123.507812 286.851562 121.796875 286.851562 119.683594 L 286.851562 52.046875 C 286.851562 32.371094 270.84375 16.359375 251.167969 16.359375 L 89.636719 16.359375 C 87.527344 16.359375 85.816406 14.644531 85.816406 12.535156 C 85.816406 10.425781 87.527344 8.710938 89.636719 8.710938 L 251.167969 8.710938 C 275.0625 8.710938 294.5 28.152344 294.5 52.046875 L 294.5 119.683594 C 294.5 121.796875 292.785156 123.507812 290.675781 123.507812 Z M 290.675781 123.507812 " fill-opacity="1" fill-rule="nonzero"/></g><g clip-path="url(#42c23f75b5)"><path fill="#5344c2" d="M 290.675781 288.929688 L 131.832031 288.929688 C 129.722656 288.929688 128.007812 287.21875 128.007812 285.109375 C 128.007812 282.996094 129.722656 281.285156 131.832031 281.285156 L 290.675781 281.285156 C 292.785156 281.285156 294.5 282.996094 294.5 285.109375 C 294.5 287.21875 292.785156 288.929688 290.675781 288.929688 Z M 290.675781 288.929688 " fill-opacity="1" fill-rule="nonzero"/></g><path fill="#5344c2" d="M 290.675781 254.488281 C 288.566406 254.488281 286.851562 252.777344 286.851562 250.667969 L 286.851562 238.949219 C 286.851562 236.839844 288.566406 235.125 290.675781 235.125 C 292.785156 235.125 294.5 236.839844 294.5 238.949219 L 294.5 250.667969 C 294.5 252.777344 292.785156 254.488281 290.675781 254.488281 Z M 290.675781 254.488281 " fill-opacity="1" fill-rule="nonzero"/><path fill="#5344c2" d="M 258.832031 57.09375 L 206.574219 57.09375 C 204.464844 57.09375 202.753906 55.382812 202.753906 53.269531 C 202.753906 51.160156 204.464844 49.449219 206.574219 49.449219 L 258.832031 49.449219 C 260.941406 49.449219 262.65625 51.160156 262.65625 53.269531 C 262.65625 55.382812 260.941406 57.09375 258.832031 57.09375 Z M 258.832031 57.09375 " fill-opacity="1" fill-rule="nonzero"/><path fill="#5344c2" d="M 194.828125 57.09375 L 142.574219 57.09375 C 140.460938 57.09375 138.75 55.382812 138.75 53.269531 C 138.75 51.160156 140.460938 49.449219 142.574219 49.449219 L 194.828125 49.449219 C 196.941406 49.449219 198.652344 51.160156 198.652344 53.269531 C 198.652344 55.382812 196.941406 57.09375 194.828125 57.09375 Z M 194.828125 57.09375 " fill-opacity="1" fill-rule="nonzero"/><path fill="#5344c2" d="M 200.703125 153.324219 C 198.59375 153.324219 196.878906 151.613281 196.878906 149.5 L 196.878906 59.144531 C 196.878906 57.03125 198.59375 55.320312 200.703125 55.320312 C 202.8125 55.320312 204.527344 57.03125 204.527344 59.144531 L 204.527344 149.5 C 204.527344 151.613281 202.8125 153.324219 200.703125 153.324219 Z M 200.703125 153.324219 " fill-opacity="1" fill-rule="nonzero"/><path fill="#5344c2" d="M 219.835938 153.3125 L 181.5625 153.3125 C 179.449219 153.3125 177.738281 151.597656 177.738281 149.488281 C 177.738281 147.378906 179.449219 145.664062 181.5625 145.664062 L 219.835938 145.664062 C 221.945312 145.664062 223.660156 147.378906 223.660156 149.488281 C 223.660156 151.597656 221.945312 153.3125 219.835938 153.3125 Z M 219.835938 153.3125 " fill-opacity="1" fill-rule="nonzero"/><path fill="#5344c2" d="M 200.699219 62.957031 C 195.351562 62.957031 191 58.605469 191 53.257812 C 191 47.910156 195.351562 43.5625 200.699219 43.5625 C 206.046875 43.5625 210.398438 47.910156 210.398438 53.257812 C 210.398438 58.605469 206.046875 62.957031 200.699219 62.957031 Z M 200.699219 51.207031 C 199.570312 51.207031 198.648438 52.128906 198.648438 53.257812 C 198.648438 54.390625 199.570312 55.308594 200.699219 55.308594 C 201.828125 55.308594 202.75 54.390625 202.75 53.257812 C 202.75 52.128906 201.828125 51.207031 200.699219 51.207031 Z M 200.699219 51.207031 " fill-opacity="1" fill-rule="nonzero"/><path fill="#5344c2" d="M 155.359375 119.464844 C 142.738281 119.464844 132.46875 109.195312 132.46875 96.574219 C 132.46875 94.460938 134.183594 92.75 136.292969 92.75 L 174.425781 92.75 C 176.539062 92.75 178.25 94.460938 178.25 96.574219 C 178.25 109.195312 167.984375 119.464844 155.359375 119.464844 Z M 140.601562 100.398438 C 142.300781 106.957031 148.277344 111.816406 155.359375 111.816406 C 162.445312 111.816406 168.417969 106.957031 170.117188 100.398438 Z M 140.601562 100.398438 " fill-opacity="1" fill-rule="nonzero"/><path fill="#5344c2" d="M 141.519531 100.398438 C 141.132812 100.398438 140.742188 100.339844 140.355469 100.214844 C 138.34375 99.574219 137.238281 97.417969 137.878906 95.410156 L 151.71875 52.105469 C 152.359375 50.097656 154.511719 48.988281 156.527344 49.628906 C 158.535156 50.273438 159.644531 52.425781 159.003906 54.4375 L 145.164062 97.738281 C 144.644531 99.359375 143.140625 100.398438 141.519531 100.398438 Z M 141.519531 100.398438 " fill-opacity="1" fill-rule="nonzero"/><path fill="#5344c2" d="M 169.199219 100.398438 C 167.578125 100.398438 166.074219 99.359375 165.554688 97.738281 L 151.714844 54.4375 C 151.074219 52.425781 152.183594 50.273438 154.191406 49.628906 C 156.210938 48.988281 158.359375 50.097656 159 52.105469 L 172.839844 95.410156 C 173.480469 97.417969 172.375 99.574219 170.363281 100.214844 C 169.976562 100.339844 169.582031 100.398438 169.199219 100.398438 Z M 169.199219 100.398438 " fill-opacity="1" fill-rule="nonzero"/><path fill="#5344c2" d="M 246.042969 119.464844 C 233.421875 119.464844 223.152344 109.195312 223.152344 96.574219 C 223.152344 94.460938 224.867188 92.75 226.976562 92.75 L 265.109375 92.75 C 267.222656 92.75 268.933594 94.460938 268.933594 96.574219 C 268.933594 109.195312 258.667969 119.464844 246.042969 119.464844 Z M 231.285156 100.398438 C 232.984375 106.957031 238.960938 111.816406 246.042969 111.816406 C 253.128906 111.816406 259.101562 106.957031 260.800781 100.398438 Z M 231.285156 100.398438 " fill-opacity="1" fill-rule="nonzero"/><path fill="#5344c2" d="M 232.203125 100.398438 C 231.820312 100.398438 231.425781 100.339844 231.039062 100.214844 C 229.027344 99.574219 227.921875 97.417969 228.5625 95.410156 L 242.402344 52.105469 C 243.042969 50.097656 245.191406 48.988281 247.210938 49.628906 C 249.21875 50.273438 250.328125 52.425781 249.6875 54.4375 L 235.847656 97.738281 C 235.328125 99.359375 233.824219 100.398438 232.203125 100.398438 Z M 232.203125 100.398438 " fill-opacity="1" fill-rule="nonzero"/><path fill="#5344c2" d="M 259.882812 100.398438 C 258.261719 100.398438 256.757812 99.359375 256.238281 97.738281 L 242.398438 54.4375 C 241.757812 52.425781 242.867188 50.273438 244.875 49.628906 C 246.898438 48.988281 249.042969 50.097656 249.683594 52.105469 L 263.523438 95.410156 C 264.164062 97.417969 263.058594 99.574219 261.046875 100.214844 C 260.660156 100.339844 260.265625 100.398438 259.882812 100.398438 Z M 259.882812 100.398438 " fill-opacity="1" fill-rule="nonzero"/><path fill="#5344c2" d="M 257.457031 190.066406 L 142.574219 190.066406 C 140.460938 190.066406 138.75 188.355469 138.75 186.242188 C 138.75 184.132812 140.460938 182.421875 142.574219 182.421875 L 257.457031 182.421875 C 259.566406 182.421875 261.28125 184.132812 261.28125 186.242188 C 261.28125 188.355469 259.566406 190.066406 257.457031 190.066406 Z M 257.457031 190.066406 " fill-opacity="1" fill-rule="nonzero"/><path fill="#5344c2" d="M 258.832031 218.363281 L 142.574219 218.363281 C 140.460938 218.363281 138.75 216.652344 138.75 214.539062 C 138.75 212.429688 140.460938 210.71875 142.574219 210.71875 L 258.832031 210.71875 C 260.941406 210.71875 262.65625 212.429688 262.65625 214.539062 C 262.65625 216.652344 260.941406 218.363281 258.832031 218.363281 Z M 258.832031 218.363281 " fill-opacity="1" fill-rule="nonzero"/></svg>